<?xml version="1.0" encoding="utf-8"?>
<!-- Generator: Adobe Illustrator 24.1.2, SVG Export Plug-In . SVG Version: 6.00 Build 0)  -->
<svg version="1.1" id="Layer_1" xmlns="http://www.w3.org/2000/svg" xmlns:xlink="http://www.w3.org/1999/xlink" x="0px" y="0px"
	 viewBox="0 0 24 24" style="enable-background:new 0 0 24 24;" xml:space="preserve">
<style type="text/css">
	.st0{fill:#A6A3A1;}
	.st1{fill:#CC1F24;}
</style>
<g>
	<path class="st0" d="M14.88,14.82V2.86c0-1.54-1.26-2.8-2.8-2.8c-1.54,0-2.8,1.26-2.8,2.8v11.96c-1.35,0.91-2.24,2.45-2.24,4.2
		c0,2.77,2.26,5.03,5.04,5.03c2.77,0,5.03-2.26,5.03-5.03C17.1,17.28,16.22,15.74,14.88,14.82z M12.07,23.05
		c-2.23,0-4.04-1.81-4.04-4.03c0-1.57,0.9-2.94,2.21-3.59c0.01-0.01,0.02-0.02,0.03-0.01V2.86c0-0.99,0.81-1.8,1.8-1.8
		c0.99,0,1.8,0.81,1.8,1.8v12.56c0.01,0,0.02,0,0.03,0.01c1.31,0.67,2.2,2.03,2.2,3.59C16.1,21.24,14.3,23.05,12.07,23.05z"/>
	<path class="st0" d="M10.27,15.42v0.01h-0.03C10.25,15.42,10.26,15.41,10.27,15.42z"/>
	<path class="st0" d="M13.9,15.43h-0.03v-0.01C13.88,15.42,13.89,15.42,13.9,15.43z"/>
	<path class="st1" d="M14.79,19.01c0,1.5-1.22,2.72-2.72,2.72c-1.51,0-2.73-1.22-2.73-2.72c0-1.24,0.83-2.29,1.96-2.62V3.65
		c0-0.42,0.35-0.77,0.78-0.77c0.42,0,0.78,0.34,0.78,0.77v12.74C13.98,16.73,14.79,17.77,14.79,19.01z"/>
	<path class="st0" d="M18.87,3.64h-3.06c-0.21,0-0.38-0.17-0.38-0.38s0.17-0.38,0.38-0.38h3.06c0.21,0,0.38,0.17,0.38,0.38
		S19.08,3.64,18.87,3.64z"/>
	<path class="st0" d="M17.52,5.99h-1.71c-0.21,0-0.38-0.17-0.38-0.38c0-0.21,0.17-0.38,0.38-0.38h1.71c0.21,0,0.38,0.17,0.38,0.38
		C17.9,5.82,17.73,5.99,17.52,5.99z"/>
	<path class="st0" d="M17.52,10.66h-1.71c-0.21,0-0.38-0.17-0.38-0.38S15.6,9.9,15.81,9.9h1.71c0.21,0,0.38,0.17,0.38,0.38
		S17.73,10.66,17.52,10.66z"/>
	<path class="st0" d="M18.87,13.14h-3.06c-0.21,0-0.38-0.17-0.38-0.38c0-0.21,0.17-0.38,0.38-0.38h3.06c0.21,0,0.38,0.17,0.38,0.38
		C19.25,12.97,19.08,13.14,18.87,13.14z"/>
	<path class="st0" d="M18.87,8.39h-3.06c-0.21,0-0.38-0.17-0.38-0.38s0.17-0.38,0.38-0.38h3.06c0.21,0,0.38,0.17,0.38,0.38
		S19.08,8.39,18.87,8.39z"/>
</g>
</svg>
