<?xml version="1.0" encoding="utf-8"?>
<!-- Generator: Adobe Illustrator 19.0.0, SVG Export Plug-In . SVG Version: 6.00 Build 0)  -->
<svg version="1.1" id="Layer_1" xmlns="http://www.w3.org/2000/svg" xmlns:xlink="http://www.w3.org/1999/xlink" x="0px" y="0px"
	 width="24px" height="24px" viewBox="0 0 24 24" style="enable-background:new 0 0 24 24;" xml:space="preserve">
<style type="text/css">
	.st0{fill:#FFFFFF;}
	.st1{fill:#DA7D30;}
</style>
<g id="XMLID_524_">
	<g id="XMLID_525_">
		<g id="XMLID_526_">
			<path id="XMLID_527_" class="st0" d="M17,18.7L16.3,18c0.3-0.2,0.6-0.5,0.9-0.8c0.3-0.3,0.5-0.6,0.8-0.9l0.7,0.7l0.3-0.3
				c0.1-0.1,0.3-0.1,0.5,0l4,4c0.8,0.8,0.8,2,0,2.7c-0.7,0.7-2,0.8-2.7,0l-4-4c-0.1-0.1-0.1-0.3,0-0.5L17,18.7z"/>
		</g>
	</g>
</g>
<path id="XMLID_14_" class="st0" d="M10,20C4.5,20,0,15.5,0,10S4.5,0,10,0s10,4.5,10,10S15.5,20,10,20z M10,2c-4.4,0-8,3.6-8,8
	c0,4.4,3.6,8,8,8c4.4,0,8-3.6,8-8C18,5.6,14.4,2,10,2z"/>
<g id="XMLID_1034_">
	<g id="XMLID_1038_">
		<g id="XMLID_12_">
			<path id="XMLID_10_" class="st1" d="M14.2,14.3h-2.5c-0.1,0-0.2-0.1-0.2-0.2c0-0.1,0.1-0.2,0.2-0.2h2.3v-2.3
				c0-0.1,0.1-0.2,0.2-0.2s0.2,0.1,0.2,0.2v2.5C14.4,14.2,14.3,14.3,14.2,14.3z"/>
			<path id="XMLID_11_" class="st1" d="M14.2,14.8h-2.5c-0.4,0-0.8-0.3-0.8-0.8c0-0.4,0.3-0.8,0.8-0.8h1.8v-1.8
				c0-0.4,0.3-0.8,0.8-0.8c0.4,0,0.8,0.3,0.8,0.8v2.5C14.9,14.5,14.6,14.8,14.2,14.8z"/>
		</g>
		<g id="XMLID_9_">
			<path id="XMLID_7_" class="st1" d="M14.2,14.3c-0.1,0-0.1,0-0.2-0.1l-3.5-3.5c-0.1-0.1-0.1-0.2,0-0.3c0.1-0.1,0.2-0.1,0.3,0
				l3.5,3.5c0.1,0.1,0.1,0.2,0,0.3C14.3,14.3,14.2,14.3,14.2,14.3z"/>
			<path id="XMLID_8_" class="st1" d="M14.2,14.8c-0.2,0-0.4-0.1-0.5-0.2l-3.5-3.5c-0.3-0.3-0.3-0.8,0-1.1c0.1-0.1,0.3-0.2,0.5-0.2
				c0,0,0,0,0,0c0.2,0,0.4,0.1,0.5,0.2l3.5,3.5c0.3,0.3,0.3,0.8,0,1.1C14.5,14.7,14.4,14.8,14.2,14.8z"/>
		</g>
	</g>
	<g id="XMLID_1035_">
		<g id="XMLID_6_">
			<path id="XMLID_4_" class="st1" d="M5.9,8.5c-0.1,0-0.2-0.1-0.2-0.2V5.8c0-0.1,0.1-0.2,0.2-0.2h2.5c0.1,0,0.2,0.1,0.2,0.2
				C8.6,5.9,8.5,6,8.4,6H6.1v2.3C6.1,8.4,6,8.5,5.9,8.5z"/>
			<path id="XMLID_5_" class="st1" d="M5.9,9C5.4,9,5.1,8.7,5.1,8.3V5.8C5.1,5.4,5.4,5,5.9,5h2.5c0.4,0,0.8,0.3,0.8,0.8
				S8.8,6.5,8.4,6.5H6.6v1.8C6.6,8.7,6.3,9,5.9,9z"/>
		</g>
		<g id="XMLID_3_">
			<path id="XMLID_1_" class="st1" d="M9.4,9.5c-0.1,0-0.1,0-0.2-0.1L5.7,5.9c-0.1-0.1-0.1-0.2,0-0.3c0.1-0.1,0.2-0.1,0.3,0l3.5,3.5
				c0.1,0.1,0.1,0.2,0,0.3C9.5,9.5,9.4,9.5,9.4,9.5z"/>
			<path id="XMLID_2_" class="st1" d="M9.4,10C9.2,10,9,9.9,8.8,9.8L5.3,6.3C5.2,6.2,5.1,6,5.1,5.8c0-0.2,0.1-0.4,0.2-0.5
				C5.5,5.1,5.7,5,5.9,5c0,0,0,0,0,0c0.2,0,0.4,0.1,0.5,0.2l3.5,3.5c0.3,0.3,0.3,0.8,0,1.1C9.7,9.9,9.6,10,9.4,10z"/>
		</g>
	</g>
</g>
</svg>
