<?xml version="1.0" encoding="utf-8"?>
<!-- Generator: Adobe Illustrator 27.5.0, SVG Export Plug-In . SVG Version: 6.00 Build 0)  -->
<svg version="1.1" xmlns="http://www.w3.org/2000/svg" xmlns:xlink="http://www.w3.org/1999/xlink" x="0px" y="0px"
	 viewBox="0 0 24 24" style="enable-background:new 0 0 24 24;" xml:space="preserve">
<style type="text/css">
	.st0{fill:url(#SVGID_1_);}
	.st1{fill:url(#SVGID_00000026861895852406441360000017940497941311597966_);}
</style>
<g id="Layer_1">
</g>
<g id="Layer_2">
	<g>
		<g>
			<radialGradient id="SVGID_1_" cx="11.4453" cy="8.5977" r="14.5965" fx="10.5018" fy="8.61" gradientUnits="userSpaceOnUse">
				<stop  offset="0" style="stop-color:#F74203"/>
				<stop  offset="0.0366" style="stop-color:#F74803"/>
				<stop  offset="0.0855" style="stop-color:#F65903"/>
				<stop  offset="0.1414" style="stop-color:#F57502"/>
				<stop  offset="0.2024" style="stop-color:#F49C02"/>
				<stop  offset="0.2668" style="stop-color:#F2CD01"/>
				<stop  offset="0.3156" style="stop-color:#F0F700"/>
				<stop  offset="0.3297" style="stop-color:#EBF700"/>
				<stop  offset="0.3462" style="stop-color:#DDF700"/>
				<stop  offset="0.3638" style="stop-color:#C6F800"/>
				<stop  offset="0.3822" style="stop-color:#A5F800"/>
				<stop  offset="0.4013" style="stop-color:#7BF900"/>
				<stop  offset="0.4207" style="stop-color:#48FA00"/>
				<stop  offset="0.4338" style="stop-color:#21FB00"/>
				<stop  offset="0.4714" style="stop-color:#1DFB1F"/>
				<stop  offset="0.5541" style="stop-color:#12FB70"/>
				<stop  offset="0.6751" style="stop-color:#01FBEF"/>
				<stop  offset="0.6788" style="stop-color:#00FBF3"/>
				<stop  offset="0.6964" style="stop-color:#00F5F3"/>
				<stop  offset="0.7206" style="stop-color:#00E3F4"/>
				<stop  offset="0.7487" style="stop-color:#00C6F5"/>
				<stop  offset="0.7796" style="stop-color:#009DF7"/>
				<stop  offset="0.813" style="stop-color:#0069F9"/>
				<stop  offset="0.8478" style="stop-color:#002AFB"/>
				<stop  offset="0.8688" style="stop-color:#0001FD"/>
			</radialGradient>
			<path class="st0" d="M12.57,9.02c0.05-0.16,0.08-0.33,0.08-0.51c0-0.95-0.77-1.73-1.72-1.73c-0.95,0-1.72,0.78-1.72,1.73
				c0,0.94,0.77,1.72,1.72,1.72c0.2,0,0.39-0.03,0.58-0.1l3.68,3.7h8.31v2.04h-5.83l-3.96,3.96v3.67h-2.55v-7.71l-3.27-3.27
				c0.07-0.18,0.1-0.37,0.1-0.58c0-0.95-0.77-1.72-1.72-1.72s-1.72,0.77-1.72,1.72c0,0.95,0.77,1.72,1.72,1.72
				c0.18,0,0.36-0.03,0.52-0.09l2.85,2.85v7.08h-2c-3.95,0-7.14-3.19-7.14-7.14V7.64c0-1.07,0.23-2.08,0.66-2.99h11.61l3.5,3.33
				c-0.07,0.18-0.11,0.38-0.11,0.6c0,0.95,0.77,1.72,1.72,1.72s1.72-0.77,1.72-1.72s-0.77-1.72-1.72-1.72
				c-0.17,0-0.33,0.02-0.49,0.08l-4.01-3.8H2.1C3.41,1.53,5.4,0.5,7.64,0.5h8.72c3.95,0,7.14,3.19,7.14,7.14v4.67h-7.68L12.57,9.02z
				"/>
			<path d="M16.36,0.5c3.95,0,7.14,3.19,7.14,7.14v4.67h-7.68l-3.25-3.29c0.05-0.16,0.08-0.33,0.08-0.51c0-0.95-0.77-1.73-1.72-1.73
				c-0.95,0-1.72,0.78-1.72,1.73c0,0.94,0.77,1.72,1.72,1.72c0.2,0,0.39-0.03,0.58-0.1l3.68,3.7h8.31v2.04h-5.83l-3.96,3.96v3.67
				h-2.55v-7.71l-3.27-3.27c0.07-0.18,0.1-0.37,0.1-0.58c0-0.95-0.77-1.72-1.72-1.72c-0.95,0-1.72,0.77-1.72,1.72
				s0.77,1.72,1.72,1.72c0.18,0,0.36-0.03,0.52-0.09l2.85,2.85v7.08h-2c-3.95,0-7.14-3.19-7.14-7.14V7.64
				c0-1.07,0.23-2.08,0.66-2.99h11.61l3.5,3.33c-0.07,0.18-0.11,0.38-0.11,0.6c0,0.95,0.77,1.72,1.72,1.72
				c0.95,0,1.72-0.77,1.72-1.72c0-0.95-0.77-1.72-1.72-1.72c-0.17,0-0.33,0.02-0.49,0.08l-4.01-3.8H2.1C3.41,1.53,5.4,0.5,7.64,0.5
				H16.36 M16.36,0H7.64c-2.3,0-4.47,1.03-5.93,2.82L1.03,3.64H2.1h11.07l3.86,3.67l0.23,0.22l0.3-0.11
				c0.09-0.03,0.19-0.05,0.32-0.05c0.67,0,1.21,0.54,1.21,1.21s-0.54,1.21-1.21,1.21c-0.67,0-1.21-0.54-1.21-1.21
				c0-0.14,0.03-0.28,0.08-0.41l0.12-0.32l-0.25-0.23l-3.5-3.33l-0.15-0.14h-0.2H1.16H0.84L0.7,4.44C0.24,5.44,0,6.52,0,7.64v8.72
				C0,20.57,3.43,24,7.64,24h2h0.5v-0.5v-7.08V16.2L10,16.05l-2.85-2.85l-0.23-0.23l-0.3,0.11c-0.1,0.04-0.22,0.06-0.35,0.06
				c-0.67,0-1.21-0.54-1.21-1.21c0-0.67,0.54-1.21,1.21-1.21c0.67,0,1.21,0.54,1.21,1.21c0,0.15-0.02,0.28-0.07,0.39l-0.12,0.31
				l0.23,0.23l3.12,3.12v7.5V24h0.5h2.55h0.5v-0.5v-3.46l3.66-3.66h5.62H24v-0.5v-2.04v-0.5h-0.5h-8.1l-3.54-3.56l-0.23-0.23
				l-0.31,0.12c-0.12,0.04-0.24,0.07-0.39,0.07c-0.67,0-1.21-0.54-1.21-1.21c0-0.67,0.54-1.22,1.21-1.22c0.67,0,1.21,0.55,1.21,1.22
				c0,0.12-0.02,0.24-0.06,0.36l-0.09,0.29l0.21,0.22l3.25,3.29l0.15,0.15h0.21h7.68H24v-0.5V7.64C24,3.43,20.57,0,16.36,0L16.36,0z
				"/>
			<g>
				
					<radialGradient id="SVGID_00000158710678192787463890000005129701883983469467_" cx="29.5911" cy="21.1136" r="4.4521" fx="29.3033" fy="21.1173" gradientUnits="userSpaceOnUse">
					<stop  offset="0.3156" style="stop-color:#F0F700"/>
					<stop  offset="0.3297" style="stop-color:#EBF700"/>
					<stop  offset="0.3462" style="stop-color:#DDF700"/>
					<stop  offset="0.3638" style="stop-color:#C6F800"/>
					<stop  offset="0.3822" style="stop-color:#A5F800"/>
					<stop  offset="0.4013" style="stop-color:#7BF900"/>
					<stop  offset="0.4207" style="stop-color:#48FA00"/>
					<stop  offset="0.4338" style="stop-color:#21FB00"/>
					<stop  offset="0.4714" style="stop-color:#1DFB1F"/>
					<stop  offset="0.5541" style="stop-color:#12FB70"/>
					<stop  offset="0.6751" style="stop-color:#01FBEF"/>
					<stop  offset="0.6788" style="stop-color:#00FBF3"/>
					<stop  offset="0.6964" style="stop-color:#00F5F3"/>
					<stop  offset="0.7206" style="stop-color:#00E3F4"/>
					<stop  offset="0.7487" style="stop-color:#00C6F5"/>
					<stop  offset="0.7796" style="stop-color:#009DF7"/>
					<stop  offset="0.813" style="stop-color:#0069F9"/>
					<stop  offset="0.8478" style="stop-color:#002AFB"/>
					<stop  offset="0.8688" style="stop-color:#0001FD"/>
				</radialGradient>
				<path style="fill:url(#SVGID_00000158710678192787463890000005129701883983469467_);" d="M18.29,17.38h5.13
					c-0.48,3.46-3.45,6.12-7.05,6.12h-1.14v-3.05L18.29,17.38z"/>
				<path d="M23.41,17.38c-0.48,3.46-3.45,6.12-7.05,6.12h-1.14v-3.05l3.07-3.07H23.41 M23.99,16.87h-0.58h-5.13h-0.21l-0.15,0.15
					l-3.07,3.07l-0.15,0.15v0.21v3.05V24h0.5h1.14c3.78,0,7.03-2.82,7.55-6.55L23.99,16.87L23.99,16.87z"/>
			</g>
		</g>
	</g>
</g>
</svg>
