<svg id="Layer_1" data-name="Layer 1" xmlns="http://www.w3.org/2000/svg" viewBox="0 0 100 100"><defs><style>.cls-1{fill:#bebebe;}</style></defs><path class="cls-1" d="M78.89,51.93A18.34,18.34,0,0,1,74.5,67.07h0a8.09,8.09,0,0,0,5.35.53,23,23,0,0,0,3.84-13.3,7.91,7.91,0,0,0-4.81-2.41Z"/><path class="cls-1" d="M62.28,32h-.07a1,1,0,0,0-1,1v2.63a1,1,0,0,0,.9,1,18.47,18.47,0,0,1,15.15,10.3h.63a12.87,12.87,0,0,1,4.63.85h0A23,23,0,0,0,62.28,32Z"/><path class="cls-1" d="M48.93,69a18.39,18.39,0,0,1-2.26-25.91,1,1,0,0,0-.07-1.32l-1.87-1.84a1,1,0,0,0-.69-.27h0a1,1,0,0,0-.7.34,22.94,22.94,0,0,0,6.1,34.88L37.34,90.16H7.12a.5.5,0,0,0,0,1H37.59A.51.51,0,0,0,38,91L50.3,75.32a22.77,22.77,0,0,0,10.45,2.52h0a23,23,0,0,0,14.61-5.25,13,13,0,0,1-4.9-2.1A18.39,18.39,0,0,1,48.93,69Z"/><path class="cls-1" d="M92.71,75.82,86,67.61A11.26,11.26,0,0,0,89,62a11.1,11.1,0,0,0-7.5-12.74,11.52,11.52,0,0,0-3.4-.5,11.12,11.12,0,0,0-11,10,12,12,0,0,0,.42,4.46,11.12,11.12,0,0,0,8.07,7.43,11.48,11.48,0,0,0,7.22-.71L88.25,79A2.76,2.76,0,0,0,92,80l.19-.12a2.6,2.6,0,0,0,1.12-1.91A2.56,2.56,0,0,0,92.71,75.82Zm-1.08,3.09a1.7,1.7,0,0,1-2.39-.31l-.07-.09L83.09,68.6l-.43.21A10.06,10.06,0,0,1,69.1,64.48a9.73,9.73,0,0,1-.66-1.61,11.48,11.48,0,0,1-.36-4,10.06,10.06,0,0,1,10-9,9,9,0,0,1,3,.5A10.17,10.17,0,0,1,87.9,61.81a9.69,9.69,0,0,1-3,5.37l-.36.36,7.36,9A1.69,1.69,0,0,1,91.63,78.91Z"/><path class="cls-1" d="M50.16,38.74l0,0a1.05,1.05,0,0,0,.28.24l.14.06a1.1,1.1,0,0,0,.26.06l.09,0h.17a.94.94,0,0,0,.32-.11,18.38,18.38,0,0,1,7.9-2.47,1,1,0,0,0,.9-1V33a1,1,0,0,0-.31-.71h0a1,1,0,0,0-.29-.18l-.15,0a1.29,1.29,0,0,0-.19,0h-.07A23.09,23.09,0,0,0,49,35.18a1,1,0,0,0-.46.63,1.34,1.34,0,0,0,0,.4,1,1,0,0,0,.16.36Z"/><rect class="cls-1" x="6.84" y="83.67" width="18.27" height="2.01"/><rect class="cls-1" x="6.84" y="86.46" width="13.8" height="2.01"/><rect class="cls-1" x="61.92" y="11.68" width="16.5" height="2.01"/><rect class="cls-1" x="61.92" y="8.84" width="14.63" height="2.01"/><rect class="cls-1" x="61.92" y="14.47" width="13.8" height="2.01"/><path class="cls-1" d="M25.43,29.28H36.8l8.57,8.58a1,1,0,0,0,0,1.33L47.3,41a.9.9,0,0,0,.68.27,1,1,0,0,0,.64-.24l.54-.45a1,1,0,0,0,.18-1.31l-1.5-2.16,0-.06a1,1,0,0,0-1.36-.15l-.32.26-8.76-8.76a.53.53,0,0,0-.36-.15H25.43a.5.5,0,0,0-.5.5A.5.5,0,0,0,25.43,29.28Z"/><path class="cls-1" d="M53.77,31.7a.49.49,0,0,0,.41-.21l8.55-12H80.28a.5.5,0,0,0,.5-.5.5.5,0,0,0-.5-.5H62.47a.48.48,0,0,0-.4.2l-8.7,12.19a.51.51,0,0,0,.11.7A.52.52,0,0,0,53.77,31.7Z"/><rect class="cls-1" x="25.46" y="22.13" width="10.93" height="2.01"/><rect class="cls-1" x="25.43" y="19.29" width="10.99" height="2.01"/><rect class="cls-1" x="25.46" y="24.92" width="13.8" height="2.01"/></svg>