<svg id="Layer_1" data-name="Layer 1" xmlns="http://www.w3.org/2000/svg" viewBox="0 0 100 100"><defs><style>.cls-1{fill:#bebebe;}</style></defs><path class="cls-1" d="M48,52.61H42.14V64.44H48Zm-3.68,9.77v-7.7h1.62v7.7Z"/><path class="cls-1" d="M41.44,56.09H35.63v8.43h5.81Zm-3.75,6.3V58.15h1.62v4.24Z"/><polygon class="cls-1" points="68.4 68.87 68.4 66.95 66.34 66.95 66.34 68.87 62.03 68.87 62.03 66.95 59.97 66.95 59.97 68.87 55.74 68.87 55.74 66.95 53.67 66.95 53.67 68.87 49.37 68.87 49.37 66.95 47.31 66.95 47.31 68.87 43.07 68.87 43.07 66.95 41.01 66.95 41.01 68.87 36.7 68.87 36.7 66.95 34.64 66.95 34.64 68.87 31.11 68.87 31.11 65.03 33.02 65.03 33.02 62.96 31.11 62.96 31.11 58.69 33.02 58.69 33.02 56.62 31.11 56.62 31.11 52.35 33.02 52.35 33.02 50.21 31.11 50.21 31.11 45.94 33.02 45.94 33.02 43.88 31.11 43.88 31.11 39.6 33.02 39.6 33.02 37.47 31.11 37.47 31.11 33.2 33.02 33.2 33.02 31.13 31.11 31.13 31.11 26.5 28.98 26.5 28.98 68.87 26.5 68.87 26.5 71.01 28.98 71.01 28.98 73.5 31.11 73.5 31.11 71.01 73.5 71.01 73.5 68.87 68.4 68.87"/><path class="cls-1" d="M50.08,54H48.72V64.44h5.74V55.49a12.12,12.12,0,0,0,4.45-.26v7.15H57.29V55.73H55.23v8.71H61V55.65l4.73,7.77a3.29,3.29,0,0,0,2,1.5,3.74,3.74,0,0,0,.81.1,3.27,3.27,0,0,0,1.66-.46l.21-.13a3.09,3.09,0,0,0,1.34-2.25,3,3,0,0,0-.74-2.52L64.6,51.79a11.73,11.73,0,0,0,2.8-5.51,11.6,11.6,0,1,0-22.93-3.4,12.27,12.27,0,0,0,.45,4.66A11.68,11.68,0,0,0,50.08,54ZM55.23,40.7V53.56a11.16,11.16,0,0,1-1.14-.16h.37V45.6H48.72v4.63a9.81,9.81,0,0,1-1.22-1.82,8.94,8.94,0,0,1-.63-1.51A10.7,10.7,0,0,1,46.53,43,9.53,9.53,0,0,1,56,34.51,8.57,8.57,0,0,1,58.9,35a9.71,9.71,0,0,1,6.46,10.9A9.25,9.25,0,0,1,62.53,51l-.68.68L69.49,61a1.2,1.2,0,0,1-1.1,1.93,1.27,1.27,0,0,1-.84-.51l-6.32-10.3L61,52.2V40.7ZM50.78,51.28V47.74H52.4v5.14a9.66,9.66,0,0,1-2.65-1.6Zm6.51-8.52h1.62V52.88h.7a9.48,9.48,0,0,1-2.32.62ZM52.4,55.44v6.94H50.78v-8a11.66,11.66,0,0,0,2.57.95h0c.25.06.5.1.76.14Zm7-.35a9.44,9.44,0,0,0,1.06-.36l.22.36Z"/></svg>