<svg xmlns="http://www.w3.org/2000/svg" width="76.7" height="94.9" viewBox="0 0 76.7 94.9">
  <g id="pdf" transform="translate(-139 -108)">
    <g id="Group_2" data-name="Group 2" transform="translate(-392.217 -1062.901)">
      <g id="Group_1" data-name="Group 1">
        <path id="Path_1" data-name="Path 1" d="M590.417,1190.9h16.1a7.889,7.889,0,0,0-1.2-1.5l-15.9-15.9a9.828,9.828,0,0,0-1.5-1.2v16A2.5,2.5,0,0,0,590.417,1190.9Z" fill="#b30b00"/>
        <path id="Path_2" data-name="Path 2" d="M567.017,1206.3c-.1-.2-.3-.4-.9-.4s-.7.2-.7.3c-.6,1.4.1,4.5,1.5,7.8C567.817,1209.8,567.717,1207.3,567.017,1206.3Z" fill="#b30b00"/>
        <path id="Path_3" data-name="Path 3" d="M590.417,1197.6a9.176,9.176,0,0,1-9.2-9.2v-17.5h-41.1a8.877,8.877,0,0,0-8.9,8.9v77.1a8.92,8.92,0,0,0,8.9,8.9h58.9a8.92,8.92,0,0,0,8.9-8.9v-59.3Zm.3,36.9a7.437,7.437,0,0,1-5.2,2.2c-2.8,0-6.1-1.6-9.8-4.6-2,.4-4.2,1-6.8,1.7-2.2.6-4.1,1.3-5.8,1.9-3,5.4-6.9,10.9-10.6,11.8a5.021,5.021,0,0,1-1.2.2,3.942,3.942,0,0,1-2.7-1,4.337,4.337,0,0,1-1.6-4.2c.8-4.1,7.4-7.6,13.4-10,.8-1.5,1.5-3.1,2.2-4.7,1.2-3,2.2-5.7,2.9-8-2.8-5.2-5.1-11.6-3.5-15.1a4.524,4.524,0,0,1,4.3-2.7,4.579,4.579,0,0,1,4.1,2.1c1.8,2.6,1.5,7.7-.7,15.3a27.88,27.88,0,0,0,3.1,4.4,50.446,50.446,0,0,0,4.1,4c8-1.4,13.3-.8,14.9,1.8A4.263,4.263,0,0,1,590.717,1234.5Z" fill="#b30b00"/>
        <path id="Path_4" data-name="Path 4" d="M568.017,1224.2c-.6,1.6-1.2,3.3-1.9,5.1h0c-.2.5-.4.9-.6,1.4.9-.3,1.6-.5,2.3-.7,1.5-.4,3-.8,4.3-1.2a26.622,26.622,0,0,1-2.3-2.4A27,27,0,0,1,568.017,1224.2Z" fill="#b30b00"/>
        <path id="Path_5" data-name="Path 5" d="M550.717,1243.3c.3.5.4.5.7.5,1.4-.4,3.4-2.4,5.4-5.4C552.817,1240.4,550.917,1242.3,550.717,1243.3Z" fill="#b30b00"/>
        <path id="Path_6" data-name="Path 6" d="M581.117,1231.1a9.446,9.446,0,0,0,4.5,1.6,2.316,2.316,0,0,0,2.4-1C588.517,1230.9,585.917,1230.6,581.117,1231.1Z" fill="#b30b00"/>
      </g>
    </g>
    <path id="Path_7" data-name="Path 7" d="M560.417,1232.5c-6,2.4-12.6,5.9-13.4,10a4.337,4.337,0,0,0,1.6,4.2,3.942,3.942,0,0,0,2.7,1,5.021,5.021,0,0,0,1.2-.2c3.7-.9,7.6-6.4,10.6-11.8,1.7-.6,3.6-1.3,5.8-1.9,2.6-.7,4.8-1.3,6.8-1.7,3.7,3,7,4.6,9.8,4.6a7.437,7.437,0,0,0,5.2-2.2,4.263,4.263,0,0,0,1.1-4.9c-1.6-2.6-6.9-3.2-14.9-1.8a50.446,50.446,0,0,1-4.1-4,27.88,27.88,0,0,1-3.1-4.4c2.2-7.6,2.5-12.7.7-15.3a4.579,4.579,0,0,0-4.1-2.1,4.524,4.524,0,0,0-4.3,2.7c-1.6,3.5.7,9.9,3.5,15.1-.7,2.3-1.7,5-2.9,8C561.917,1229.4,561.217,1231,560.417,1232.5Zm-9,11.3c-.3,0-.4,0-.7-.5.2-1,2.1-2.9,6.1-4.9C554.817,1241.4,552.817,1243.4,551.417,1243.8Zm36.6-12.1a2.316,2.316,0,0,1-2.4,1,9.446,9.446,0,0,1-4.5-1.6C585.917,1230.6,588.517,1230.9,588.017,1231.7Zm-22.6-25.5c0-.1.1-.3.7-.3s.8.2.9.4c.7,1,.8,3.5-.1,7.7C565.517,1210.7,564.817,1207.6,565.417,1206.2Zm.7,23.1c.7-1.8,1.3-3.5,1.9-5.1a27,27,0,0,0,1.8,2.2,26.622,26.622,0,0,0,2.3,2.4c-1.3.4-2.8.8-4.3,1.2-.7.2-1.4.4-2.3.7C565.717,1230.2,565.917,1229.8,566.117,1229.3Z" transform="translate(-392.217 -1062.901)" fill="#fff"/>
  </g>
</svg>
