<svg xmlns="http://www.w3.org/2000/svg" width="76.7" height="94.9" viewBox="0 0 76.7 94.9">
  <g id="csv" transform="translate(-531.543 -1315.972)">
    <g id="Group_5" data-name="Group 5">
      <g id="Group_4" data-name="Group 4">
        <path id="Path_8" data-name="Path 8" d="M590.743,1335.972h16.1a7.886,7.886,0,0,0-1.2-1.5l-15.9-15.9a9.828,9.828,0,0,0-1.5-1.2v16A2.5,2.5,0,0,0,590.743,1335.972Z" fill="green"/>
        <path id="Path_9" data-name="Path 9" d="M590.743,1342.672a9.176,9.176,0,0,1-9.2-9.2v-17.5h-41.1a8.877,8.877,0,0,0-8.9,8.9v77.1a8.92,8.92,0,0,0,8.9,8.9h58.9a8.92,8.92,0,0,0,8.9-8.9v-59.3Z" fill="green"/>
      </g>
    </g>
    <g id="Group_8" data-name="Group 8">
      <g id="Group_7" data-name="Group 7">
        <g id="Group_6" data-name="Group 6">
          <path id="Path_10" data-name="Path 10" d="M568.171,1371.443h3.443a1.722,1.722,0,0,1,1.722,1.722h3.443a5.164,5.164,0,0,0-5.165-5.165h-3.443a5.164,5.164,0,1,0,0,10.329h3.443a1.722,1.722,0,1,1,0,3.444h-3.443a1.722,1.722,0,0,1-1.722-1.722h-3.443a5.165,5.165,0,0,0,5.165,5.165h3.443a5.165,5.165,0,1,0,0-10.33h-3.443a1.721,1.721,0,1,1,0-3.443Z" fill="#fff"/>
          <path id="Path_11" data-name="Path 11" d="M554.4,1371.443a3.444,3.444,0,0,1,3.444,3.443h3.443a6.886,6.886,0,0,0-13.773,0v3.443a6.886,6.886,0,1,0,13.773,0h-3.443a3.443,3.443,0,1,1-6.887,0v-3.443A3.444,3.444,0,0,1,554.4,1371.443Z" fill="#fff"/>
          <path id="Path_12" data-name="Path 12" d="M588.83,1368v10.329c0,1.86-2.617,3.444-3.443,3.444s-3.443-1.584-3.443-3.444V1368H578.5v10.329c0,3.805,4.166,6.887,6.886,6.887s6.886-3.082,6.886-6.887V1368Z" fill="#fff"/>
        </g>
      </g>
    </g>
  </g>
</svg>
