<svg id="Layer_1" data-name="Layer 1" xmlns="http://www.w3.org/2000/svg" viewBox="0 0 100 100"><defs><style>.cls-1{fill:#bebebe;}</style></defs><path class="cls-1" d="M64.22,56.33H59.07V50.48l-.49-.19a7.49,7.49,0,0,0-2-.39V60.42a2,2,0,0,1-2,2H48.46a8.5,8.5,0,0,0,2,2.45h4.14a4.48,4.48,0,0,0,4.49-4.49V58.78H64.5A8.74,8.74,0,0,0,64.22,56.33Z"/><path class="cls-1" d="M33.17,62.46a2,2,0,0,1-2-2V31.74a2,2,0,0,1,2-2H54.58a2,2,0,0,1,2,2V45.83a13.38,13.38,0,0,1,2.45.34V31.74a4.48,4.48,0,0,0-4.49-4.49H41.75V25.61a2,2,0,0,1,2-2H65.2a2,2,0,0,1,2,2V52.67a12.42,12.42,0,0,1,1.32,4.58,4.44,4.44,0,0,0,1.13-3V25.61a4.48,4.48,0,0,0-4.49-4.49H43.79a4.48,4.48,0,0,0-4.49,4.49v1.64H33.17a4.48,4.48,0,0,0-4.49,4.49V60.42a4.48,4.48,0,0,0,4.49,4.49h12a12.78,12.78,0,0,1-1.16-2.45Z"/><path class="cls-1" d="M35.17,40.58A1.2,1.2,0,0,0,34,41.8,1.23,1.23,0,0,0,35.17,43H44a1.23,1.23,0,1,0,0-2.45Z"/><path class="cls-1" d="M70.65,74.34l-6.72-8.21a11.32,11.32,0,0,0,3-5.59A11,11,0,0,0,56,47.31a10.94,10.94,0,0,0-3.76.67A1.2,1.2,0,0,0,51,46.79H35a1.23,1.23,0,1,0,0,2.45H49.78A11.11,11.11,0,0,0,46.33,53H35a1.23,1.23,0,1,0,0,2.45H45.32A10.89,10.89,0,0,0,45,57.29a11.94,11.94,0,0,0,.43,4.45,11.13,11.13,0,0,0,8.07,7.44,11.56,11.56,0,0,0,7.22-.71l5.52,9.06a2.75,2.75,0,0,0,3.78,1l.18-.11a2.65,2.65,0,0,0,1.13-1.91A2.56,2.56,0,0,0,70.65,74.34Zm-1.08,3.09a1.69,1.69,0,0,1-2.38-.3.36.36,0,0,1-.07-.1L61,67.12l-.42.22A10.07,10.07,0,0,1,47,63a10.87,10.87,0,0,1-.66-1.61,11.19,11.19,0,0,1-.35-4,10,10,0,0,1,.39-1.91H51A1.23,1.23,0,1,0,51,53H47.56A10,10,0,0,1,56,48.37a9,9,0,0,1,3,.5,10.16,10.16,0,0,1,6.79,11.46,9.66,9.66,0,0,1-3,5.38l-.35.35,7.36,9A1.69,1.69,0,0,1,69.57,77.43Z"/></svg>