<?xml version="1.0" encoding="utf-8"?>
<!-- Generator: Adobe Illustrator 19.0.0, SVG Export Plug-In . SVG Version: 6.00 Build 0)  -->
<svg version="1.1" id="Layer_1" xmlns="http://www.w3.org/2000/svg" xmlns:xlink="http://www.w3.org/1999/xlink" x="0px" y="0px"
	 width="24px" height="24px" viewBox="0 0 24 24" style="enable-background:new 0 0 24 24;" xml:space="preserve">
<style type="text/css">
	.st0{fill:#FFFFFF;}
</style>
<g id="XMLID_532_">
	<g id="XMLID_533_">
		<g id="XMLID_534_">
			<path id="XMLID_535_" class="st0" d="M17,18.7L16.3,18c0.3-0.2,0.6-0.5,0.9-0.8c0.3-0.3,0.5-0.6,0.8-0.9l0.7,0.7l0.3-0.3
				c0.1-0.1,0.3-0.1,0.5,0l4,4c0.8,0.8,0.8,2,0,2.7c-0.7,0.7-2,0.8-2.7,0l-4-4c-0.1-0.1-0.1-0.3,0-0.5L17,18.7z"/>
		</g>
	</g>
</g>
<path id="XMLID_2_" class="st0" d="M10,20C4.5,20,0,15.5,0,10C0,4.5,4.5,0,10,0c5.5,0,10,4.5,10,10C20,15.5,15.5,20,10,20z M10,2
	c-4.4,0-8,3.6-8,8s3.6,8,8,8s8-3.6,8-8S14.4,2,10,2z"/>
<rect id="XMLID_530_" x="9" y="5.2" class="st0" width="2" height="9.7"/>
<rect id="XMLID_528_" x="5.2" y="9" class="st0" width="9.7" height="2"/>
</svg>
